# xmcd CD Database Entry
#
# Track frame offsets:
# 150
# 21812
# 39925
# 60960
# 86725
# 111175
# 130262
# 155500
# 172525
# 185987
# 203875
# 226122
#
# Disc length: 3301 seconds
#
# Revision: 1
# Processed by: cddbd v1.4PL0 Copyright (c) Steve Scherf et al.
# Submitted via: tcd 2.0b
#
DISCID=900ce30c
DTITLE=Morphine - The Night
DYEAR=1900
DGENRE=
TTITLE0=The Night
TTITLE1=So Many Ways
TTITLE2=Souvenir
TTITLE3=Top Floor, Bottom Buzzer
TTITLE4=Like A Mirror
TTITLE5=A Good Woman is Hard to Find
TTITLE6=Rope on Fire
TTITLE7=I'm Yours, You're Mine
TTITLE8=The Way We Met
TTITLE9=Slow Numbers
TTITLE10=Take Me With You
TTITLE11=Come In Houston
EXTD=Japanese Import\n
EXTT0=
EXTT1=
EXTT2=
EXTT3=
EXTT4=
EXTT5=
EXTT6=
EXTT7=
EXTT8=
EXTT9=
EXTT10=
EXTT11=
PLAYORDER=
